<svg xmlns="http://www.w3.org/2000/svg" viewBox="0 0 64 64">
  <defs>
    <linearGradient id="g" x1="0%" y1="0%" x2="100%" y2="100%">
      <stop offset="0%" stop-color="#4ade80"/>
      <stop offset="100%" stop-color="#22d3ee"/>
    </linearGradient>
  </defs>
  <path d="M32 4L8 18v28l24 14 24-14V18L32 4z" fill="#1e1b4b" stroke="url(#g)" stroke-width="2"/>
  <path d="M32 14L16 23v18l16 9 16-9V23L32 14z" fill="none" stroke="url(#g)" stroke-width="2.5"/>
  <path d="M32 24l-8 4.5v9L32 42l8-4.5v-9L32 24z" fill="url(#g)" opacity="0.9"/>
  <path d="M32 4v10M32 42v18M8 18l8 5M48 23l8-5M8 46l8-5M48 41l8 5" stroke="url(#g)" stroke-width="1" opacity="0.4"/>
</svg>
